<svg width="149" height="40" viewBox="0 0 149 40" fill="none" xmlns="http://www.w3.org/2000/svg">
<g clip-path="url(#clip0_3_16328)">
<path d="M10.8125 4.76563C5.09117 4.76563 0.453125 9.40368 0.453125 15.125C0.453125 20.8463 5.09117 25.4844 10.8125 25.4844H29.0937C34.8151 25.4844 39.4531 20.8463 39.4531 15.125C39.4531 9.40368 34.8151 4.76563 29.0937 4.76563H10.8125Z" fill="#375DFB"/>
<path d="M10.8125 4.76563C5.09117 4.76563 0.453125 9.40368 0.453125 15.125C0.453125 20.8463 5.09117 25.4844 10.8125 25.4844H29.0937C34.8151 25.4844 39.4531 20.8463 39.4531 15.125C39.4531 9.40368 34.8151 4.76563 29.0937 4.76563H10.8125Z" fill="url(#paint0_linear_3_16328)" fill-opacity="0.16"/>
<path d="M19.9531 36.4531C15.6324 36.4531 11.9681 33.6426 10.6886 29.75H14.6746C15.7282 31.5714 17.6976 32.7969 19.9531 32.7969C22.2087 32.7969 24.178 31.5714 25.2316 29.75H29.2176C27.9382 33.6426 24.2739 36.4531 19.9531 36.4531Z" fill="#375DFB"/>
<path d="M19.9531 36.4531C15.6324 36.4531 11.9681 33.6426 10.6886 29.75H14.6746C15.7282 31.5714 17.6976 32.7969 19.9531 32.7969C22.2087 32.7969 24.178 31.5714 25.2316 29.75H29.2176C27.9382 33.6426 24.2739 36.4531 19.9531 36.4531Z" fill="url(#paint1_linear_3_16328)" fill-opacity="0.16"/>
</g>
<path d="M47.4037 27V11.4244H51.9228C53.6339 11.4244 54.9356 11.7973 55.8277 12.5432C56.7198 13.2891 57.1659 14.3274 57.1659 15.6583C57.1659 16.3018 57.0196 16.8795 56.7271 17.3914C56.4346 17.8886 56.0032 18.2908 55.4328 18.5979C54.8771 18.8904 54.2116 19.044 53.4365 19.0586V18.927C54.3871 18.927 55.1842 19.0879 55.8277 19.4096C56.4858 19.7167 56.9831 20.1555 57.3194 20.7259C57.6558 21.2816 57.824 21.9324 57.824 22.6783C57.824 24.0531 57.3487 25.1207 56.3981 25.8812C55.4621 26.6271 54.1458 27 52.4493 27H47.4037ZM49.7071 24.8501H52.4712C53.4804 24.8501 54.2262 24.6527 54.7089 24.2578C55.1915 23.8483 55.4328 23.2852 55.4328 22.5686C55.4328 21.8081 55.1769 21.2158 54.665 20.7917C54.1677 20.3676 53.4365 20.1555 52.4712 20.1555H49.7071V24.8501ZM49.7071 18.0276H51.9667C52.9319 18.0276 53.6412 17.8374 54.0946 17.4572C54.548 17.0623 54.7747 16.5139 54.7747 15.8119C54.7747 15.0952 54.548 14.5468 54.0946 14.1666C53.6412 13.7717 52.9319 13.5742 51.9667 13.5742H49.7071V18.0276ZM63.9799 27.2633C62.8537 27.2633 61.9543 26.883 61.2816 26.1225C60.6088 25.3474 60.2724 24.2651 60.2724 22.8757V15.3292H62.4881V22.3054C62.4881 23.3584 62.6709 24.1262 63.0366 24.6088C63.4022 25.0914 63.9579 25.3327 64.7038 25.3327C65.5082 25.3327 66.1517 25.0622 66.6343 24.5211C67.1316 23.9799 67.3802 23.2121 67.3802 22.2176V15.3292H69.5959V27H67.5118L67.4899 23.9507L67.797 24.0823C67.5922 25.0914 67.1608 25.8739 66.5027 26.4296C65.8446 26.9854 65.0036 27.2633 63.9799 27.2633ZM77.4629 27V15.3292H79.7005V27H77.4629ZM72.8999 27V25.1353H83.6054V27H72.8999ZM73.1192 17.1939V15.3292H79.503V17.1939H73.1192ZM77.3312 13.6401V11.3366H79.6127V13.6401H77.3312ZM89.849 27V14.7369C89.849 14.2836 89.7174 13.9326 89.4541 13.6839C89.2055 13.4207 88.8545 13.2891 88.4011 13.2891H85.7247V11.4244H88.6424C89.7685 11.4244 90.6168 11.7169 91.1872 12.3019C91.7722 12.8722 92.0647 13.7205 92.0647 14.8466V27H89.849ZM85.286 27V25.1353H95.9915V27H85.286ZM102.542 27.2633C101.548 27.2633 100.685 27.0219 99.9536 26.5393C99.2223 26.0421 98.6593 25.3401 98.2644 24.4333C97.8695 23.5119 97.6721 22.4224 97.6721 21.1646C97.6721 19.9069 97.8695 18.8246 98.2644 17.9179C98.6593 16.9965 99.2223 16.2945 99.9536 15.8119C100.685 15.3146 101.548 15.066 102.542 15.066C103.361 15.066 104.078 15.2561 104.692 15.6364C105.306 16.0166 105.752 16.4627 106.03 16.9746V11.4244H108.246V27H106.184L106.118 25.2011C105.796 25.83 105.328 26.3346 104.714 26.7148C104.1 27.0804 103.376 27.2633 102.542 27.2633ZM102.915 25.2231C103.559 25.2231 104.107 25.0622 104.56 24.7404C105.028 24.4041 105.387 23.9361 105.635 23.3364C105.899 22.7222 106.03 21.9982 106.03 21.1646C106.03 20.3017 105.899 19.5705 105.635 18.9709C105.387 18.3712 105.028 17.9106 104.56 17.5888C104.092 17.2671 103.529 17.1062 102.871 17.1062C101.979 17.1062 101.277 17.4645 100.765 18.1811C100.253 18.8977 99.9975 19.8922 99.9975 21.1646C99.9975 22.4224 100.253 23.4169 100.765 24.1481C101.277 24.8647 101.994 25.2231 102.915 25.2231ZM116.223 30.5539C115.345 30.5539 114.563 30.4149 113.875 30.1371C113.188 29.8592 112.618 29.4643 112.164 28.9524C111.725 28.4406 111.418 27.8483 111.243 27.1755L113.568 27.0219C113.729 27.5046 114.014 27.8848 114.424 28.1627C114.833 28.4406 115.433 28.5795 116.223 28.5795C117.203 28.5795 117.948 28.3748 118.46 27.9653C118.987 27.5558 119.25 26.9488 119.25 26.1444V24.4333C118.972 25.0329 118.533 25.5082 117.934 25.8592C117.349 26.2102 116.669 26.3857 115.894 26.3857C114.928 26.3857 114.065 26.1444 113.305 25.6618C112.544 25.1792 111.952 24.5211 111.528 23.6874C111.104 22.8392 110.892 21.8666 110.892 20.7697C110.892 19.629 111.097 18.6345 111.506 17.7862C111.93 16.938 112.515 16.2726 113.261 15.7899C114.007 15.3073 114.855 15.066 115.806 15.066C116.625 15.066 117.341 15.2561 117.956 15.6364C118.585 16.002 119.038 16.5066 119.316 17.1501L119.338 15.3292H121.466V25.9909C121.466 26.9707 121.254 27.7971 120.83 28.4698C120.405 29.1572 119.798 29.6764 119.009 30.0274C118.234 30.3784 117.305 30.5539 116.223 30.5539ZM116.201 24.4114C117.107 24.4114 117.839 24.0896 118.394 23.4461C118.95 22.8026 119.235 21.9032 119.25 20.7478C119.265 19.9581 119.14 19.2926 118.877 18.7515C118.628 18.1957 118.27 17.7716 117.802 17.4791C117.349 17.1866 116.815 17.0404 116.201 17.0404C115.25 17.0404 114.512 17.3694 113.985 18.0276C113.473 18.6711 113.217 19.5778 113.217 20.7478C113.217 21.9032 113.48 22.8026 114.007 23.4461C114.548 24.0896 115.279 24.4114 116.201 24.4114ZM129.267 27.2633C128.17 27.2633 127.212 27.0146 126.393 26.5174C125.589 26.0201 124.96 25.3108 124.506 24.3894C124.068 23.4681 123.848 22.3931 123.848 21.1646C123.848 19.9361 124.068 18.8685 124.506 17.9617C124.96 17.055 125.581 16.3457 126.371 15.8338C127.176 15.3219 128.119 15.066 129.201 15.066C130.239 15.066 131.154 15.3146 131.943 15.8119C132.733 16.2945 133.347 16.9965 133.786 17.9179C134.239 18.8246 134.466 19.9215 134.466 21.2085V21.8227H126.174C126.247 22.9342 126.554 23.7825 127.095 24.3675C127.651 24.9379 128.382 25.2231 129.289 25.2231C129.976 25.2231 130.547 25.0622 131 24.7404C131.453 24.4041 131.768 23.9726 131.943 23.4461L134.269 23.5997C133.932 24.7112 133.325 25.6033 132.448 26.2761C131.585 26.9342 130.525 27.2633 129.267 27.2633ZM126.174 20.0458H132.075C131.987 19.0513 131.68 18.3127 131.154 17.8301C130.642 17.3475 129.991 17.1062 129.201 17.1062C128.382 17.1062 127.709 17.3548 127.183 17.8521C126.656 18.3493 126.32 19.0806 126.174 20.0458ZM137.112 27V15.3292H139.152L139.218 18.3786L138.977 18.2031C139.123 17.4864 139.379 16.9014 139.744 16.4481C140.125 15.9801 140.585 15.6364 141.127 15.417C141.668 15.183 142.245 15.066 142.86 15.066C143.737 15.066 144.461 15.2634 145.031 15.6583C145.602 16.0386 146.033 16.5651 146.326 17.2378C146.618 17.8959 146.764 18.6418 146.764 19.4754V27H144.549V20.0458C144.549 19.0367 144.351 18.2762 143.956 17.7643C143.576 17.2524 142.999 16.9965 142.223 16.9965C141.682 16.9965 141.192 17.1135 140.754 17.3475C140.329 17.5815 139.986 17.9325 139.723 18.4005C139.459 18.8539 139.328 19.4169 139.328 20.0897V27H137.112Z" fill="#252525"/>
<defs>
<linearGradient id="paint0_linear_3_16328" x1="19.9531" y1="4.76563" x2="19.9531" y2="36.4531" gradientUnits="userSpaceOnUse">
<stop stop-color="white" stop-opacity="0"/>
<stop offset="1" stop-color="white"/>
</linearGradient>
<linearGradient id="paint1_linear_3_16328" x1="19.9531" y1="4.76563" x2="19.9531" y2="36.4531" gradientUnits="userSpaceOnUse">
<stop stop-color="white" stop-opacity="0"/>
<stop offset="1" stop-color="white"/>
</linearGradient>
<clipPath id="clip0_3_16328">
<rect width="39" height="39" fill="white" transform="translate(0.453125 0.500002)"/>
</clipPath>
</defs>
</svg>
