<svg width="149" height="39" viewBox="0 0 149 39" fill="none" xmlns="http://www.w3.org/2000/svg">
<g clip-path="url(#clip0_20_867)">
<path d="M10.3594 4.26562C4.63805 4.26562 0 8.90367 0 14.625C0 20.3463 4.63805 24.9844 10.3594 24.9844H28.6406C34.3619 24.9844 39 20.3463 39 14.625C39 8.90367 34.3619 4.26562 28.6406 4.26562H10.3594Z" fill="url(#paint0_linear_20_867)"/>
<path d="M10.3594 4.26562C4.63805 4.26562 0 8.90367 0 14.625C0 20.3463 4.63805 24.9844 10.3594 24.9844H28.6406C34.3619 24.9844 39 20.3463 39 14.625C39 8.90367 34.3619 4.26562 28.6406 4.26562H10.3594Z" fill="url(#paint1_linear_20_867)" fill-opacity="0.16"/>
<path d="M19.5 35.9531C15.1793 35.9531 11.515 33.1426 10.2355 29.25H14.2215C15.2751 31.0714 17.2444 32.2969 19.5 32.2969C21.7555 32.2969 23.7249 31.0714 24.7785 29.25H28.7645C27.485 33.1426 23.8207 35.9531 19.5 35.9531Z" fill="url(#paint2_linear_20_867)"/>
<path d="M19.5 35.9531C15.1793 35.9531 11.515 33.1426 10.2355 29.25H14.2215C15.2751 31.0714 17.2444 32.2969 19.5 32.2969C21.7555 32.2969 23.7249 31.0714 24.7785 29.25H28.7645C27.485 33.1426 23.8207 35.9531 19.5 35.9531Z" fill="url(#paint3_linear_20_867)" fill-opacity="0.16"/>
</g>
<path d="M46.9506 26.5V10.9244H51.4697C53.1808 10.9244 54.4824 11.2973 55.3746 12.0432C56.2667 12.7891 56.7127 13.8274 56.7127 15.1583C56.7127 15.8018 56.5665 16.3795 56.274 16.8914C55.9815 17.3886 55.5501 17.7908 54.9797 18.0979C54.4239 18.3904 53.7585 18.544 52.9834 18.5586V18.427C53.934 18.427 54.7311 18.5879 55.3746 18.9096C56.0327 19.2167 56.5299 19.6555 56.8663 20.2259C57.2027 20.7816 57.3709 21.4324 57.3709 22.1783C57.3709 23.5531 56.8956 24.6207 55.9449 25.3812C55.0089 26.1271 53.6927 26.5 51.9962 26.5H46.9506ZM49.254 24.3501H52.0181C53.0272 24.3501 53.7731 24.1527 54.2557 23.7578C54.7384 23.3483 54.9797 22.7852 54.9797 22.0686C54.9797 21.3081 54.7237 20.7158 54.2119 20.2917C53.7146 19.8676 52.9834 19.6555 52.0181 19.6555H49.254V24.3501ZM49.254 17.5276H51.5136C52.4788 17.5276 53.1881 17.3374 53.6415 16.9572C54.0949 16.5623 54.3216 16.0139 54.3216 15.3119C54.3216 14.5952 54.0949 14.0468 53.6415 13.6666C53.1881 13.2717 52.4788 13.0742 51.5136 13.0742H49.254V17.5276ZM63.5267 26.7633C62.4006 26.7633 61.5012 26.383 60.8284 25.6225C60.1557 24.8474 59.8193 23.7651 59.8193 22.3757V14.8292H62.035V21.8054C62.035 22.8584 62.2178 23.6262 62.5834 24.1088C62.9491 24.5914 63.5048 24.8327 64.2507 24.8327C65.0551 24.8327 65.6986 24.5622 66.1812 24.0211C66.6784 23.4799 66.9271 22.7121 66.9271 21.7176V14.8292H69.1427V26.5H67.0587L67.0367 23.4507L67.3439 23.5823C67.1391 24.5914 66.7077 25.3739 66.0496 25.9296C65.3914 26.4854 64.5505 26.7633 63.5267 26.7633ZM77.0097 26.5V14.8292H79.2474V26.5H77.0097ZM72.4467 26.5V24.6353H83.1522V26.5H72.4467ZM72.6661 16.6939V14.8292H79.0499V16.6939H72.6661ZM76.8781 13.1401V10.8366H79.1596V13.1401H76.8781ZM89.3959 26.5V14.2369C89.3959 13.7836 89.2642 13.4326 89.001 13.1839C88.7524 12.9207 88.4014 12.7891 87.948 12.7891H85.2716V10.9244H88.1893C89.3154 10.9244 90.1637 11.2169 90.734 11.8019C91.319 12.3722 91.6115 13.2205 91.6115 14.3466V26.5H89.3959ZM84.8329 26.5V24.6353H95.5384V26.5H84.8329ZM102.089 26.7633C101.095 26.7633 100.232 26.5219 99.5005 26.0393C98.7692 25.5421 98.2062 24.8401 97.8113 23.9333C97.4164 23.0119 97.219 21.9224 97.219 20.6646C97.219 19.4069 97.4164 18.3246 97.8113 17.4179C98.2062 16.4965 98.7692 15.7945 99.5005 15.3119C100.232 14.8146 101.095 14.566 102.089 14.566C102.908 14.566 103.625 14.7561 104.239 15.1364C104.853 15.5166 105.299 15.9627 105.577 16.4746V10.9244H107.793V26.5H105.731L105.665 24.7011C105.343 25.33 104.875 25.8346 104.261 26.2148C103.647 26.5804 102.923 26.7633 102.089 26.7633ZM102.462 24.7231C103.106 24.7231 103.654 24.5622 104.107 24.2404C104.575 23.9041 104.934 23.4361 105.182 22.8364C105.446 22.2222 105.577 21.4982 105.577 20.6646C105.577 19.8017 105.446 19.0705 105.182 18.4709C104.934 17.8712 104.575 17.4106 104.107 17.0888C103.639 16.7671 103.076 16.6062 102.418 16.6062C101.526 16.6062 100.824 16.9645 100.312 17.6811C99.8003 18.3977 99.5443 19.3922 99.5443 20.6646C99.5443 21.9224 99.8003 22.9169 100.312 23.6481C100.824 24.3647 101.541 24.7231 102.462 24.7231ZM115.77 30.0539C114.892 30.0539 114.11 29.9149 113.422 29.6371C112.735 29.3592 112.164 28.9643 111.711 28.4524C111.272 27.9406 110.965 27.3483 110.79 26.6755L113.115 26.5219C113.276 27.0046 113.561 27.3848 113.971 27.6627C114.38 27.9406 114.98 28.0795 115.77 28.0795C116.749 28.0795 117.495 27.8748 118.007 27.4653C118.534 27.0558 118.797 26.4488 118.797 25.6444V23.9333C118.519 24.5329 118.08 25.0082 117.481 25.3592C116.896 25.7102 116.216 25.8857 115.44 25.8857C114.475 25.8857 113.612 25.6444 112.852 25.1618C112.091 24.6792 111.499 24.0211 111.075 23.1874C110.651 22.3392 110.439 21.3666 110.439 20.2697C110.439 19.129 110.643 18.1345 111.053 17.2862C111.477 16.438 112.062 15.7726 112.808 15.2899C113.554 14.8073 114.402 14.566 115.353 14.566C116.172 14.566 116.888 14.7561 117.503 15.1364C118.131 15.502 118.585 16.0066 118.863 16.6501L118.885 14.8292H121.013V25.4909C121.013 26.4707 120.801 27.2971 120.376 27.9698C119.952 28.6572 119.345 29.1764 118.556 29.5274C117.78 29.8784 116.852 30.0539 115.77 30.0539ZM115.748 23.9114C116.654 23.9114 117.386 23.5896 117.941 22.9461C118.497 22.3026 118.782 21.4032 118.797 20.2478C118.812 19.4581 118.687 18.7926 118.424 18.2515C118.175 17.6957 117.817 17.2716 117.349 16.9791C116.896 16.6866 116.362 16.5404 115.748 16.5404C114.797 16.5404 114.058 16.8694 113.532 17.5276C113.02 18.1711 112.764 19.0778 112.764 20.2478C112.764 21.4032 113.027 22.3026 113.554 22.9461C114.095 23.5896 114.826 23.9114 115.748 23.9114ZM128.814 26.7633C127.717 26.7633 126.759 26.5146 125.94 26.0174C125.136 25.5201 124.507 24.8108 124.053 23.8894C123.615 22.9681 123.395 21.8931 123.395 20.6646C123.395 19.4361 123.615 18.3685 124.053 17.4617C124.507 16.555 125.128 15.8457 125.918 15.3338C126.722 14.8219 127.666 14.566 128.748 14.566C129.786 14.566 130.7 14.8146 131.49 15.3119C132.28 15.7945 132.894 16.4965 133.333 17.4179C133.786 18.3246 134.013 19.4215 134.013 20.7085V21.3227H125.721C125.794 22.4342 126.101 23.2825 126.642 23.8675C127.198 24.4379 127.929 24.7231 128.836 24.7231C129.523 24.7231 130.093 24.5622 130.547 24.2404C131 23.9041 131.315 23.4726 131.49 22.9461L133.816 23.0997C133.479 24.2112 132.872 25.1033 131.995 25.7761C131.132 26.4342 130.072 26.7633 128.814 26.7633ZM125.721 19.5458H131.622C131.534 18.5513 131.227 17.8127 130.7 17.3301C130.189 16.8475 129.538 16.6062 128.748 16.6062C127.929 16.6062 127.256 16.8548 126.73 17.3521C126.203 17.8493 125.867 18.5806 125.721 19.5458ZM136.659 26.5V14.8292H138.699L138.765 17.8786L138.524 17.7031C138.67 16.9864 138.926 16.4014 139.291 15.9481C139.672 15.4801 140.132 15.1364 140.673 14.917C141.215 14.683 141.792 14.566 142.406 14.566C143.284 14.566 144.008 14.7634 144.578 15.1583C145.149 15.5386 145.58 16.0651 145.873 16.7378C146.165 17.3959 146.311 18.1418 146.311 18.9754V26.5H144.096V19.5458C144.096 18.5367 143.898 17.7762 143.503 17.2643C143.123 16.7524 142.545 16.4965 141.77 16.4965C141.229 16.4965 140.739 16.6135 140.3 16.8475C139.876 17.0815 139.533 17.4325 139.269 17.9005C139.006 18.3539 138.875 18.9169 138.875 19.5897V26.5H136.659Z" fill="white"/>
<defs>
<linearGradient id="paint0_linear_20_867" x1="19.5" y1="4.26562" x2="19.5" y2="35.9531" gradientUnits="userSpaceOnUse">
<stop stop-color="#EC4899"/>
<stop offset="1" stop-color="#BE0A63"/>
</linearGradient>
<linearGradient id="paint1_linear_20_867" x1="19.5" y1="4.26562" x2="19.5" y2="35.9531" gradientUnits="userSpaceOnUse">
<stop stop-color="white" stop-opacity="0"/>
<stop offset="1" stop-color="white"/>
</linearGradient>
<linearGradient id="paint2_linear_20_867" x1="19.5" y1="4.26562" x2="19.5" y2="35.9531" gradientUnits="userSpaceOnUse">
<stop stop-color="#EC4899"/>
<stop offset="1" stop-color="#BE0A63"/>
</linearGradient>
<linearGradient id="paint3_linear_20_867" x1="19.5" y1="4.26562" x2="19.5" y2="35.9531" gradientUnits="userSpaceOnUse">
<stop stop-color="white" stop-opacity="0"/>
<stop offset="1" stop-color="white"/>
</linearGradient>
<clipPath id="clip0_20_867">
<rect width="39" height="39" fill="white"/>
</clipPath>
</defs>
</svg>
